<svg height="320" version="1.1" width="320" xmlns="http://www.w3.org/2000/svg" xmlns:xlink="http://www.w3.org/1999/xlink" style="overflow: hidden; position: relative; left: -0.5px; top: -0.796875px;" viewBox="0 0 320 320" preserveAspectRatio="xMidYMid meet" id="main_svg"><svg height="320" version="1.1" width="320" xmlns="http://www.w3.org/2000/svg" xmlns:xlink="http://www.w3.org/1999/xlink" style="overflow: hidden; position: relative;" viewBox="0 0 160 160" preserveAspectRatio="xMidYMid meet" id="imported_svg_layer_1"><path fill="url(#gradient_un306yb5wkmlmmz4nd8mr)" stroke="none" d="M0,80A80,80,0,1,0,160,80A80,80,0,1,0,0,80" stroke-width="0" opacity="1" fill-opacity="1" transform="matrix(1,0,0,1,0,0)" style="-webkit-tap-highlight-color: rgba(0, 0, 0, 0); opacity: 1; fill-opacity: 1;"></path><desc style="-webkit-tap-highlight-color: rgba(0, 0, 0, 0);">Created with Logotizer</desc><defs style="-webkit-tap-highlight-color: rgba(0, 0, 0, 0);"><linearGradient id="gradient_un306yb5wkmlmmz4nd8mr" x1="1.8369701987210297e-16" y1="0" x2="0" y2="1" style="-webkit-tap-highlight-color: rgba(0, 0, 0, 0);"><stop offset="0%" stop-color="#edd06c" stop-opacity="1" style="-webkit-tap-highlight-color: rgba(0, 0, 0, 0);"></stop><stop offset="100%" stop-color="#b79009" stop-opacity="1" style="-webkit-tap-highlight-color: rgba(0, 0, 0, 0);"></stop></linearGradient></defs></svg><svg height="320" version="1.1" width="320" xmlns="http://www.w3.org/2000/svg" xmlns:xlink="http://www.w3.org/1999/xlink" style="overflow: hidden; position: relative;" viewBox="0 0 160 160" preserveAspectRatio="xMidYMid meet" id="imported_svg_layer_2"><desc style="-webkit-tap-highlight-color: rgba(0, 0, 0, 0);">Created with Logotizer</desc><defs style="-webkit-tap-highlight-color: rgba(0, 0, 0, 0);"></defs><path fill="#d38a30" stroke="none" d="M80.445,35.06183V35.06189A5,5,0,0,0,85.445,40.06189H149.3064A80.14326,80.14326,0,0,0,142.47791,30.06189H85.445A5,5,0,0,0,80.445,35.06183ZM80.445,114.9519A5,5,0,0,0,85.445,119.9519H149.29845A79.63123,79.63123,0,0,0,154.18151,109.9519H85.445A5,5,0,0,0,80.445,114.9519ZM66.7392,55.03436A5,5,0,0,0,71.7392,60.03436H157.48774A79.31707,79.31707,0,0,0,154.17609,50.03436H71.7392A5,5,0,0,0,66.7392,55.03436ZM66.7392,94.97937A5,5,0,0,0,71.7392,99.97937H157.48456A79.72262,79.72262,0,0,0,159.35827999999998,89.97937H71.7392A5,5,0,0,0,66.7392,94.97937ZM160,80.007V80V80.007M49.93127,75.0069A5,5,0,0,0,54.93127,80.0069H159.99982L160,80A80.64959,80.64959,0,0,0,159.35651,70.0069H54.93127A5,5,0,0,0,49.93127,75.0069Z" stroke-width="0" transform="matrix(1,0,0,1,0,0)" style="-webkit-tap-highlight-color: rgba(0, 0, 0, 0); cursor: move;"></path></svg><desc style="-webkit-tap-highlight-color: rgba(0, 0, 0, 0);">Created with Logotizer</desc><defs style="-webkit-tap-highlight-color: rgba(0, 0, 0, 0);"></defs><path fill="#e96f3a" stroke="none" d="M-133.91,-107.85L-133.91,-155.12L-6.29,-155.12L-6.29,-107.85L-26.7,-107.85L-32.18,-128.69L-53.13,-128.69L-53.13,-25.35L-32.18,-18.69L-32.18,0L-108.13,0L-108.13,-18.69L-87.18,-25.35L-87.18,-128.69L-108.13,-128.69L-113.6,-107.85L-133.91,-107.85ZM1.45,-75.2Q1.45,-113.65,21.48,-135.67Q41.51,-157.7,75.57,-157.7Q87.38,-157.7,100.22,-155.12Q113.06,-152.54,119.93,-149.96L126.81,-147.38L125.73,-105.6L104.14,-105.6L99.09,-126.76Q88.78,-130.2,74.49,-130.2Q56.88,-130.2,47.53,-116.82Q38.18,-103.45,38.18,-76.38Q38.18,-25.78,75.57,-25.78Q81.69,-25.78,88.3,-27.34Q94.9,-28.9,99.84,-31.21Q104.79,-33.52,108.92,-35.77Q113.06,-38.03,115.21,-39.53L117.35,-41.14L129.49,-21.38Q128.53,-20.41,126.75,-18.8Q124.98,-17.19,119.13,-13Q113.27,-8.81,106.99,-5.64Q100.7,-2.47,91.09,0.11Q81.47,2.69,71.81,2.69Q38.08,2.69,19.76,-17.24Q1.45,-37.17,1.45,-75.2Z" transform="matrix(0.84,0,0,0.84,142,222.5986)" style="-webkit-tap-highlight-color: rgba(0, 0, 0, 0);"></path></svg>